<?xml version="1.0" encoding="utf-8"?>
<!-- Generator: Adobe Illustrator 26.5.0, SVG Export Plug-In . SVG Version: 6.00 Build 0)  -->
<svg version="1.1" xmlns="http://www.w3.org/2000/svg" xmlns:xlink="http://www.w3.org/1999/xlink" x="0px" y="0px"
	 viewBox="0 0 612 792" style="enable-background:new 0 0 612 792;" xml:space="preserve">
<g id="Layer_1" style="display:none;">
	
		<ellipse style="display:inline;fill:#FFFFFF;stroke:#000000;stroke-width:3;stroke-miterlimit:10;" cx="375.9783" cy="361.1041" rx="74.4898" ry="69.7279"/>
	<path style="display:inline;fill:#FFFFFF;stroke:#000000;stroke-width:3;stroke-miterlimit:10;" d="M325.42,309.9009
		c-6.6501-3.1045-18.3299-7.5638-33.2359-7.8593c-16.3853-0.3247-49.2804,4.1319-55.8669,24.608
		c-3.831,11.9098,3.0053,23.7461,4.6556,26.6033c4.6809,8.1043,15.0413,19.2582,26.9358,18.9549
		c4.5507-0.1161,5.4363-1.81,24.9406-8.3135c3.6785-1.2266,6.7003-2.1844,8.6393-2.7903c0.6673-1.7303,1.3347-3.4605,2.002-5.1907"
		/>
	<path style="display:inline;fill:#FFFFFF;stroke:#000000;stroke-width:3;stroke-miterlimit:10;" d="M434.9577,318.5156
		c0,0,43.4493-17.139,58.7462-8.8254c15.2969,8.3135,21.2826,49.2161,16.627,52.874s-10.3088,9.6559-30.9263,9.6498
		c-20.6175-0.0061-28.9366-11.1099-28.9366-11.1099"/>
	
		<line style="display:inline;fill:#FFFFFF;stroke:#000000;stroke-width:3;stroke-miterlimit:10;" x1="365.2581" y1="406.7921" x2="391.6989" y2="406.7921"/>
	<path style="display:inline;fill:#FFFFFF;stroke:#000000;stroke-width:3;stroke-miterlimit:10;" d="M307.7346,369.6262
		c2.5587-3.2817,9.1933-10.8362,20.3058-14.0007c3.6014-1.0256,11.954-3.275,21.1518,0.4375
		c2.2435,0.9055,9.0034,3.7469,13.1141,10.9381c1.4821,2.5928,3.9305,6.876,2.5382,10.9381
		c-1.4859,4.335-6.5048,5.9644-12.6911,7.8754c-4.5159,1.395-11.5854,2.9852-20.7288,2.6251
		c-3.4093-0.6314-11.989-2.7351-18.6136-10.5005C310.3221,375.0215,308.7456,372.0508,307.7346,369.6262z"/>
	
		<ellipse style="display:inline;stroke:#000000;stroke-width:3;stroke-miterlimit:10;" cx="375.9783" cy="394.4881" rx="5.1544" ry="1.6627"/>
	
		<ellipse style="display:inline;stroke:#000000;stroke-width:3;stroke-miterlimit:10;" cx="336.4964" cy="371.2495" rx="16.3761" ry="14.3474"/>
	<path style="display:inline;fill:#FFFFFF;stroke:#000000;stroke-width:3;stroke-miterlimit:10;" d="M441.4284,369.5455
		c-2.45-3.4447-8.8029-11.3742-19.4435-14.6959c-3.4485-1.0765-11.4464-3.4376-20.2537,0.4592
		c-2.1483,0.9505-8.6211,3.933-12.5573,11.4812c-1.4192,2.7215-3.7636,7.2174-2.4305,11.4812
		c1.4228,4.5502,6.2285,6.2606,12.1522,8.2664c4.3242,1.4642,11.0934,3.1335,19.8486,2.7555
		c3.2645-0.6628,11.4799-2.8708,17.8232-11.0219C438.9508,375.2088,440.4603,372.0905,441.4284,369.5455z"/>
	
		<ellipse style="display:inline;stroke:#000000;stroke-width:3;stroke-miterlimit:10;" cx="411.958" cy="371.2495" rx="16.9004" ry="15.7192"/>
	<path style="display:inline;fill:#FFFFFF;stroke:#000000;stroke-width:3;stroke-miterlimit:10;" d="M338.7325,421.5009
		c0,0-82.4629-0.077-89.7788,7.904c-7.3159,7.981-10.9738,21.9477-5.3206,43.2303s6.9834,33.9192,6.9834,33.9192
		s0.9976,5.9857,10.9739,3.658c9.9762-2.3278,17.9572-15.6294,16.2945-22.6128c-1.6627-6.9834,60.8477-4.9881,60.8477-4.9881
		s8.6534,10.3087,10.9812,16.627c2.3278,6.3183,0.6651,9.6437,8.9786,9.6437c8.3135,0,17.2921,0,19.7862-6.3183
		c2.494-6.3183,2.6542-22.6128,2.6542-22.6128l21.7876-0.3326c1.779,3.7701,4.7008,9.1705,9.3112,14.9644
		c3.9745,4.9948,6.0287,7.5153,9.3112,8.6461c7.4644,2.5716,18.1348-2.2027,21.2826-9.6437
		c1.9068-4.5075-0.4764-10.7148-5.3206-22.9453c-1.8266-4.6118-5.3746-13.5607-10.3088-25.9382
		c-0.0021-4.5924-0.7354-12.8099-5.9857-20.6176c-1.2867-1.9134-2.6639-3.5335-4.0119-4.8965"/>
	<path style="display:inline;stroke:#000000;stroke-width:3;stroke-miterlimit:10;" d="M321.6176,482.379
		c0,0,1.9065,8.7032,1.7589,10.0426c-0.1475,1.3394-0.3142,9.1139-4.2319,10.7431c-3.9178,1.6291-11.1218,1.9479-15.7339-0.3874
		s-12.3158-15.0523-12.3158-15.0523c-1.9089-4.1632-1.9089-4.1632-1.9089-4.1632"/>
	<path style="display:inline;fill:#FFFFFF;stroke:#000000;stroke-width:3;stroke-miterlimit:10;" d="M244.2506,436.5139
		c0,0-10.9263-21.0757-11.9239-33.0472c-0.9976-11.9715,13.9667,13.9667,13.9667,13.9667l9.8065,9.0511"/>
</g>
<g id="Layer_2">
	
		<ellipse style="fill:#FFFFFF;stroke:#000000;stroke-width:3;stroke-miterlimit:10;" cx="357.0702" cy="362.4342" rx="74.4898" ry="69.7279"/>
	<path style="fill:#FFFFFF;stroke:#000000;stroke-width:3;stroke-miterlimit:10;" d="M402.6472,312.9309
		c6.2184-3.8914,17.2608-9.7402,32.0111-11.8492c16.2141-2.3182,49.3882-1.9018,58.4175,17.6193
		c5.2519,11.3543-0.087,23.9352-1.3757,26.972c-3.6555,8.6141-12.5733,20.9469-24.4093,22.0946
		c-4.5283,0.4391-5.6132-1.1343-25.7536-5.2135c-3.7985-0.7693-6.9128-1.352-8.9101-1.7171
		c-0.8728-1.636-1.7457-3.2721-2.6186-4.9082"/>
	<path style="fill:#FFFFFF;stroke:#000000;stroke-width:3;stroke-miterlimit:10;" d="M299.7754,317.8738
		c-6.3611-3.8473-16.4513-9.1262-29.7365-12.6778c-11.625-3.1078-17.4501-4.665-24.2488-2.7332
		c-19.8853,5.6504-34.842,38.5822-23.9091,50.0048c4.0939,4.2773,8.8459,11.0117,29.2587,13.9098
		c15.2441,2.1643,30.2117-6.9227,30.213-6.9231l0,0"/>
	
		<line style="fill:#FFFFFF;stroke:#000000;stroke-width:3;stroke-miterlimit:10;" x1="367.7904" y1="408.1223" x2="341.3497" y2="408.1223"/>
	<path style="fill:#FFFFFF;stroke:#000000;stroke-width:3;stroke-miterlimit:10;" d="M425.3139,370.9563
		c-2.5587-3.2817-9.1933-10.8362-20.3058-14.0007c-3.6014-1.0256-11.9539-3.275-21.1518,0.4375
		c-2.2436,0.9055-9.0034,3.7469-13.1141,10.9381c-1.4821,2.5927-3.9305,6.8759-2.5382,10.9381
		c1.4858,4.335,6.5047,5.9644,12.6911,7.8754c4.5159,1.395,11.5854,2.9852,20.7288,2.6251
		c3.4093-0.6314,11.989-2.735,18.6136-10.5005C422.7264,376.3517,424.3029,373.381,425.3139,370.9563z"/>
	<ellipse style="stroke:#000000;stroke-width:3;stroke-miterlimit:10;" cx="357.0702" cy="395.8183" rx="5.1544" ry="1.6627"/>
	<ellipse style="stroke:#000000;stroke-width:3;stroke-miterlimit:10;" cx="396.5522" cy="372.5797" rx="16.3761" ry="14.3474"/>
	<path style="fill:#FFFFFF;stroke:#000000;stroke-width:3;stroke-miterlimit:10;" d="M291.6201,370.8757
		c2.4501-3.4447,8.8029-11.3743,19.4435-14.6959c3.4485-1.0765,11.4464-3.4376,20.2537,0.4592
		c2.1483,0.9505,8.6211,3.933,12.5573,11.4812c1.4191,2.7215,3.7636,7.2174,2.4304,11.4812
		c-1.4228,4.5502-6.2285,6.2606-12.1522,8.2664c-4.3241,1.4642-11.0934,3.1335-19.8486,2.7555
		c-3.2645-0.6628-11.48-2.8709-17.8233-11.0219C294.0977,376.5389,292.5882,373.4207,291.6201,370.8757z"/>
	<ellipse style="stroke:#000000;stroke-width:3;stroke-miterlimit:10;" cx="321.0905" cy="372.5797" rx="16.9004" ry="15.7192"/>
	<path style="fill:#FFFFFF;stroke:#000000;stroke-width:3;stroke-miterlimit:10;" d="M394.316,422.8311
		c0,0,82.4629-0.077,89.7788,7.904c7.2227,7.8793,11.9938,28.4664,5.3206,43.2303c-2.1113,4.6711-6.629,11.353-10.8957,23.943
		c-1.6496,4.8676-2.6991,8.9582-3.3254,11.6389c-0.8779,1.3475-2.2465,3.0187-4.323,4.323
		c-7.3033,4.5873-19.1509,2.0286-21.9477-3.9905c-1.8277-3.9335,1.0396-9.7036,2.9929-13.6342
		c2.2759-4.5798,3.9253-5.3495,3.7754-6.5986c-0.4128-3.4388-13.9482-6.2263-61.3758-5.7054
		c-8.081,6.6512-9.5125,12.6408-10.9812,16.627c-2.3278,6.3183-0.6651,9.6437-8.9786,9.6437c-8.3135,0-17.2921,0-19.7862-6.3183
		c-2.494-6.3183-2.6542-22.6128-2.6542-22.6128c-6.0141-0.0918-12.0281-0.1836-18.0422-0.2754
		c1.3633,2.888,3.1997,7.4179,4.3138,13.2445c1.0696,5.5942,1.6387,8.5703,0,10.9738c-2.9037,4.259-11.2529,4.5398-16.9596,1.9953
		c-2.2647-1.0098-7.9082-4.1567-12.6365-18.9549c-2.5998-8.1364-5.8308-22.6365-2.7385-42.2327
		c0.0021-4.5924,0.7354-12.8099,5.9857-20.6176c1.2867-1.9134,2.6639-3.5335,4.0119-4.8965"/>
	<path style="stroke:#000000;stroke-width:3;stroke-miterlimit:10;" d="M416.3346,484.6067
		c1.0624,3.1546,2.8077,7.6207,5.6532,12.6366c2.6741,4.7138,4.0639,7.1022,6.6508,8.6461
		c4.7234,2.819,13.213,3.3323,16.9596-1.9952c3.4669-4.9298,0.5339-11.5354,0.3326-11.9715
		c-0.6894-2.3435-1.3789-4.687-2.0683-7.0306"/>
	<path style="fill:#FFFFFF;stroke:#000000;stroke-width:3;stroke-miterlimit:10;" d="M488.7979,437.8441
		c4.3018-2.4231,10.4684-6.4435,16.6576-12.7622c1.8173-1.8553,9.3708-9.7488,7.981-11.6389
		c-0.8768-1.1925-5.5639-0.3334-22.9453,9.3112c-4.5142,1.6869-9.0284,3.3737-13.5426,5.0606"/>
</g>
</svg>
