<?xml version="1.0" encoding="utf-8"?>
<!-- Generator: Adobe Illustrator 26.5.0, SVG Export Plug-In . SVG Version: 6.00 Build 0)  -->
<svg version="1.1" id="Layer_1" xmlns="http://www.w3.org/2000/svg" xmlns:xlink="http://www.w3.org/1999/xlink" x="0px" y="0px"
	 viewBox="0 0 612 792" style="enable-background:new 0 0 612 792;" xml:space="preserve">
<ellipse style="fill:#FFFFFF;stroke:#000000;stroke-width:3;stroke-miterlimit:10;" cx="368.1735" cy="361.1041" rx="74.4898" ry="69.7279"/>
<path style="fill:#FFFFFF;stroke:#000000;stroke-width:3;stroke-miterlimit:10;" d="M418.7318,309.9009
	c6.6501-3.1045,18.3299-7.5638,33.2359-7.8593c16.3853-0.3247,49.2804,4.1319,55.8669,24.608
	c3.831,11.9098-3.0053,23.7461-4.6555,26.6033c-4.6809,8.1043-15.0413,19.2582-26.9358,18.9549
	c-4.5507-0.1161-5.4363-1.81-24.9406-8.3135c-3.6785-1.2266-6.7003-2.1844-8.6393-2.7903c-0.6673-1.7303-1.3347-3.4605-2.002-5.1907
	"/>
<path style="fill:#FFFFFF;stroke:#000000;stroke-width:3;stroke-miterlimit:10;" d="M309.1941,318.5156
	c0,0-43.4494-17.139-58.7462-8.8254s-21.2826,49.2161-16.6271,52.874c4.6556,3.658,10.3088,9.6559,30.9263,9.6498
	s28.9366-11.1099,28.9366-11.1099"/>
<path style="fill:#FFFFFF;stroke:#000000;stroke-width:3;stroke-miterlimit:10;" d="M436.4171,369.6262
	c-2.5587-3.2817-9.1933-10.8362-20.3057-14.0007c-3.6014-1.0256-11.954-3.275-21.1518,0.4375
	c-2.2436,0.9055-9.0034,3.7469-13.1141,10.9381c-1.4821,2.5928-3.9305,6.876-2.5382,10.9381
	c1.4858,4.335,6.5047,5.9644,12.6911,7.8754c4.5159,1.395,11.5853,2.9852,20.7288,2.6251
	c3.4092-0.6314,11.989-2.7351,18.6136-10.5005C433.8297,375.0215,435.4061,372.0508,436.4171,369.6262z"/>
<ellipse style="stroke:#000000;stroke-width:3;stroke-miterlimit:10;" cx="368.1735" cy="394.4881" rx="5.1544" ry="1.6627"/>
<line style="fill:#FFFFFF;stroke:#000000;stroke-width:3;stroke-miterlimit:10;" x1="378.8936" y1="406.7921" x2="352.4529" y2="406.7921"/>
<ellipse style="stroke:#000000;stroke-width:3;stroke-miterlimit:10;" cx="407.6554" cy="371.2495" rx="16.3761" ry="14.3474"/>
<path style="fill:#FFFFFF;stroke:#000000;stroke-width:3;stroke-miterlimit:10;" d="M302.7234,369.5455
	c2.4501-3.4447,8.8029-11.3742,19.4436-14.6959c3.4485-1.0765,11.4464-3.4376,20.2537,0.4592
	c2.1483,0.9505,8.6212,3.933,12.5573,11.4812c1.4192,2.7215,3.7636,7.2174,2.4304,11.4812
	c-1.4228,4.5502-6.2285,6.2606-12.1522,8.2664c-4.3242,1.4642-11.0934,3.1335-19.8486,2.7555
	c-3.2645-0.6628-11.4799-2.8708-17.8232-11.0219C305.201,375.2088,303.6915,372.0905,302.7234,369.5455z"/>
<ellipse style="stroke:#000000;stroke-width:3;stroke-miterlimit:10;" cx="332.1937" cy="371.2495" rx="16.9004" ry="15.7192"/>
<path style="fill:#FFFFFF;stroke:#000000;stroke-width:3;stroke-miterlimit:10;" d="M405.4193,421.5009
	c0,0,82.4629-0.077,89.7788,7.904c7.3159,7.981,10.9738,21.9477,5.3206,43.2303s-6.9834,33.9192-6.9834,33.9192
	s-0.9976,5.9857-10.9738,3.658s-17.9572-15.6294-16.2945-22.6128c1.6627-6.9834-60.8477-4.9881-60.8477-4.9881
	s-8.6534,10.3087-10.9812,16.627c-2.3278,6.3183-0.6651,9.6437-8.9786,9.6437c-8.3135,0-17.2921,0-19.7862-6.3183
	c-2.494-6.3183-2.6542-22.6128-2.6542-22.6128l-21.7876-0.3326c-1.779,3.7701-4.7008,9.1705-9.3112,14.9644
	c-3.9745,4.9948-6.0287,7.5153-9.3112,8.6461c-7.4644,2.5716-18.1348-2.2027-21.2826-9.6437
	c-1.9068-4.5075,0.4764-10.7148,5.3206-22.9453c1.8266-4.6118,5.3746-13.5607,10.3088-25.9382
	c0.0021-4.5924,0.7354-12.8099,5.9857-20.6176c1.2867-1.9134,2.6639-3.5335,4.0119-4.8965"/>
<path style="stroke:#000000;stroke-width:3;stroke-miterlimit:10;" d="M422.5341,482.379c0,0-1.9065,8.7032-1.7589,10.0426
	c0.1475,1.3394,0.3142,9.1139,4.2319,10.7431c3.9178,1.6291,11.1218,1.9479,15.7339-0.3874s12.3158-15.0523,12.3158-15.0523
	c1.9089-4.1632,1.9089-4.1632,1.9089-4.1632"/>
<path style="fill:#FFFFFF;stroke:#000000;stroke-width:3;stroke-miterlimit:10;" d="M499.9012,436.5139
	c0,0,10.9263-21.0757,11.9239-33.0472c0.9976-11.9715-13.9667,13.9667-13.9667,13.9667l-9.8065,9.0511"/>
</svg>
