<?xml version="1.0" encoding="utf-8"?>
<!-- Generator: Adobe Illustrator 26.5.0, SVG Export Plug-In . SVG Version: 6.00 Build 0)  -->
<svg version="1.1" id="Layer_1" xmlns="http://www.w3.org/2000/svg" xmlns:xlink="http://www.w3.org/1999/xlink" x="0px" y="0px"
	 viewBox="0 0 1000 300" style="enable-background:new 0 0 1000 300;" xml:space="preserve">
<line style="fill:#FFFFFF;stroke:#000000;stroke-width:3;stroke-miterlimit:10;" x1="0" y1="39.0249" x2="1000" y2="39.0249"/>
<rect x="119.0823" y="30.4428" transform="matrix(0.7071 0.7071 -0.7071 0.7071 64.9868 -78.8422)" style="fill:#FFFFFF;stroke:#000000;stroke-width:3;stroke-miterlimit:10;" width="17.1642" height="17.1642"/>
<rect x="303.2239" y="30.4428" transform="matrix(0.7071 0.7071 -0.7071 0.7071 118.9206 -209.05)" style="fill:#FFFFFF;stroke:#000000;stroke-width:3;stroke-miterlimit:10;" width="17.1642" height="17.1642"/>
<rect x="648.995" y="30.4428" transform="matrix(0.7071 0.7071 -0.7071 0.7071 220.1946 -453.5471)" style="fill:#FFFFFF;stroke:#000000;stroke-width:3;stroke-miterlimit:10;" width="17.1642" height="17.1642"/>
<rect x="326.2756" y="33.3932" transform="matrix(0.7071 0.7071 -0.7071 0.7071 124.8082 -223.2638)" style="fill:#FFFFFF;stroke:#000000;stroke-width:3;stroke-miterlimit:10;" width="11.2634" height="11.2634"/>
<rect x="139.8524" y="32.5984" transform="matrix(0.7071 0.7071 -0.7071 0.7071 70.4389 -92.0047)" style="fill:#FFFFFF;stroke:#000000;stroke-width:3;stroke-miterlimit:10;" width="12.853" height="12.853"/>
<rect x="837.4722" y="33.0381" transform="matrix(0.7071 0.7071 -0.7071 0.7071 274.6382 -584.9855)" style="fill:#FFFFFF;stroke:#000000;stroke-width:3;stroke-miterlimit:10;" width="11.9736" height="11.9736"/>
<rect x="-3.8577" y="42.5124" style="fill:#FFFFFF;stroke:#FFFFFF;stroke-width:3;stroke-miterlimit:10;" width="1007.3714" height="268.1375"/>
</svg>
