<?xml version="1.0" encoding="utf-8"?>
<!-- Generator: Adobe Illustrator 26.5.0, SVG Export Plug-In . SVG Version: 6.00 Build 0)  -->
<svg version="1.1" id="Layer_1" xmlns="http://www.w3.org/2000/svg" xmlns:xlink="http://www.w3.org/1999/xlink" x="0px" y="0px"
	 viewBox="0 0 612 792" style="enable-background:new 0 0 612 792;" xml:space="preserve">
<g id="Layer_2_00000137855014231576160080000011729463021500983203_">
	
		<ellipse style="fill:#FFFFFF;stroke:#000000;stroke-width:3;stroke-miterlimit:10;" cx="374.7263" cy="362.4342" rx="74.4898" ry="69.7279"/>
	<path style="fill:#FFFFFF;stroke:#000000;stroke-width:3;stroke-miterlimit:10;" d="M329.1493,312.9309
		c-6.2184-3.8914-17.2608-9.7402-32.0111-11.8492c-16.2142-2.3182-49.3882-1.9018-58.4176,17.6193
		c-5.2518,11.3543,0.087,23.9352,1.3757,26.972c3.6555,8.6141,12.5733,20.9469,24.4092,22.0946
		c4.5283,0.4391,5.6133-1.1343,25.7536-5.2135c3.7985-0.7693,6.9128-1.352,8.91-1.7171c0.8729-1.636,1.7457-3.2721,2.6186-4.9082"/>
	<path style="fill:#FFFFFF;stroke:#000000;stroke-width:3;stroke-miterlimit:10;" d="M432.0211,317.8738
		c6.3611-3.8473,16.4513-9.1262,29.7365-12.6778c11.625-3.1078,17.4501-4.665,24.2488-2.7332
		c19.8853,5.6504,34.842,38.5822,23.9091,50.0048c-4.0939,4.2773-8.8459,11.0117-29.2587,13.9098
		c-15.2441,2.1643-30.2117-6.9227-30.213-6.9231l0,0"/>
	
		<line style="fill:none;stroke:#000000;stroke-width:3;stroke-miterlimit:10;" x1="364.0061" y1="408.1223" x2="390.4469" y2="408.1223"/>
	<path style="fill:#FFFFFF;stroke:#000000;stroke-width:3;stroke-miterlimit:10;" d="M306.4826,370.9563
		c2.5587-3.2817,9.1933-10.8362,20.3058-14.0007c3.6014-1.0256,11.954-3.275,21.1518,0.4375
		c2.2435,0.9055,9.0034,3.7469,13.1141,10.9381c1.4821,2.5927,3.9305,6.8759,2.5382,10.9381
		c-1.4859,4.335-6.5048,5.9644-12.6911,7.8754c-4.5159,1.395-11.5854,2.9852-20.7288,2.6251
		c-3.4093-0.6314-11.989-2.735-18.6136-10.5005C309.0701,376.3517,307.4937,373.381,306.4826,370.9563z"/>
	<ellipse style="stroke:#000000;stroke-width:3;stroke-miterlimit:10;" cx="374.7263" cy="395.8183" rx="5.1544" ry="1.6627"/>
	<ellipse style="stroke:#000000;stroke-width:3;stroke-miterlimit:10;" cx="335.2444" cy="372.5797" rx="16.3761" ry="14.3474"/>
	<path style="fill:#FFFFFF;stroke:#000000;stroke-width:3;stroke-miterlimit:10;" d="M440.1764,370.8757
		c-2.45-3.4447-8.8029-11.3743-19.4435-14.6959c-3.4485-1.0765-11.4464-3.4376-20.2537,0.4592
		c-2.1483,0.9505-8.6211,3.933-12.5573,11.4812c-1.4192,2.7215-3.7636,7.2174-2.4305,11.4812
		c1.4228,4.5502,6.2285,6.2606,12.1522,8.2664c4.3242,1.4642,11.0934,3.1335,19.8486,2.7555
		c3.2645-0.6628,11.4799-2.8709,17.8232-11.0219C437.6988,376.5389,439.2083,373.4207,440.1764,370.8757z"/>
	<ellipse style="stroke:#000000;stroke-width:3;stroke-miterlimit:10;" cx="410.706" cy="372.5797" rx="16.9004" ry="15.7192"/>
	<path style="fill:#FFFFFF;stroke:#000000;stroke-width:3;stroke-miterlimit:10;" d="M337.4805,422.8311
		c0,0-82.4629-0.077-89.7788,7.904c-7.2227,7.8793-11.9938,28.4664-5.3206,43.2303c2.1113,4.6711,6.629,11.353,10.8957,23.943
		c1.6496,4.8676,2.6991,8.9582,3.3254,11.6389c0.8779,1.3475,2.2465,3.0187,4.323,4.323
		c7.3033,4.5873,19.1509,2.0286,21.9477-3.9905c1.8277-3.9335-1.0396-9.7036-2.9929-13.6342
		c-2.2759-4.5798-3.9253-5.3495-3.7754-6.5986c0.4128-3.4388,13.9482-6.2263,61.3758-5.7054
		c8.081,6.6512,9.5125,12.6408,10.9812,16.627c2.3278,6.3183,0.6651,9.6437,8.9786,9.6437s17.2921,0,19.7862-6.3183
		c2.494-6.3183,2.6542-22.6128,2.6542-22.6128c6.0141-0.0918,12.0281-0.1836,18.0422-0.2754
		c-1.3633,2.888-3.1997,7.4179-4.3138,13.2445c-1.0696,5.5942-1.6387,8.5703,0,10.9738c2.9037,4.259,11.2529,4.5398,16.9596,1.9953
		c2.2647-1.0098,7.9082-4.1567,12.6365-18.9549c2.5998-8.1364,5.8308-22.6365,2.7385-42.2327
		c-0.0021-4.5924-0.7354-12.8099-5.9857-20.6176c-1.2867-1.9134-2.6639-3.5335-4.0119-4.8965"/>
	<path style="stroke:#000000;stroke-width:3;stroke-miterlimit:10;" d="M315.4619,484.6067
		c-1.0624,3.1546-2.8077,7.6207-5.6532,12.6366c-2.6741,4.7138-4.0639,7.1022-6.6508,8.6461
		c-4.7234,2.819-13.213,3.3323-16.9596-1.9952c-3.4669-4.9298-0.5339-11.5354-0.3326-11.9715
		c0.6894-2.3435,1.3789-4.687,2.0683-7.0306"/>
	<path style="fill:#FFFFFF;stroke:#000000;stroke-width:3;stroke-miterlimit:10;" d="M242.9986,437.8441
		c-4.3018-2.4231-10.4684-6.4435-16.6576-12.7622c-1.8173-1.8553-9.3708-9.7488-7.981-11.6389
		c0.8768-1.1925,5.5639-0.3334,22.9453,9.3112c4.5142,1.6869,9.0284,3.3737,13.5426,5.0606"/>
</g>
</svg>
