<?xml version="1.0" encoding="utf-8"?>
<!-- Generator: Adobe Illustrator 26.5.0, SVG Export Plug-In . SVG Version: 6.00 Build 0)  -->
<svg version="1.1" id="Layer_1" xmlns="http://www.w3.org/2000/svg" xmlns:xlink="http://www.w3.org/1999/xlink" x="0px" y="0px"
	 viewBox="0 0 612 792" style="enable-background:new 0 0 612 792;" xml:space="preserve">
<ellipse style="fill:#FFFFFF;stroke:#000000;stroke-width:3;stroke-miterlimit:10;" cx="375.9783" cy="361.1041" rx="74.4898" ry="69.7279"/>
<path style="fill:#FFFFFF;stroke:#000000;stroke-width:3;stroke-miterlimit:10;" d="M325.42,309.9009
	c-6.6501-3.1045-18.3299-7.5638-33.2359-7.8593c-16.3853-0.3247-49.2804,4.1319-55.8669,24.608
	c-3.831,11.9098,3.0053,23.7461,4.6556,26.6033c4.6809,8.1043,15.0413,19.2582,26.9358,18.9549
	c4.5507-0.1161,5.4363-1.81,24.9406-8.3135c3.6785-1.2266,6.7003-2.1844,8.6393-2.7903c0.6673-1.7303,1.3347-3.4605,2.002-5.1907"/>
<path style="fill:#FFFFFF;stroke:#000000;stroke-width:3;stroke-miterlimit:10;" d="M434.9577,318.5156
	c0,0,43.4493-17.139,58.7462-8.8254c15.2969,8.3135,21.2826,49.2161,16.627,52.874s-10.3088,9.6559-30.9263,9.6498
	s-28.9366-11.1099-28.9366-11.1099"/>
<path style="fill:#FFFFFF;stroke:#000000;stroke-width:3;stroke-miterlimit:10;" d="M307.7346,369.8987
	c2.5587-2.7308,9.1933-9.0171,20.3058-11.6504c3.6014-0.8534,11.954-2.7252,21.1518,0.3641
	c2.2435,0.7535,9.0034,3.1179,13.1141,9.1019c1.4821,2.1575,3.9305,5.7217,2.5382,9.1019
	c-1.4859,3.6073-6.5048,4.9631-12.6911,6.5533c-4.5159,1.1608-11.5854,2.484-20.7288,2.1844
	c-3.4093-0.5254-11.989-2.2759-18.6136-8.7377C310.3221,374.3883,308.7456,371.9163,307.7346,369.8987z"/>
<ellipse style="stroke:#000000;stroke-width:3;stroke-miterlimit:10;" cx="375.9783" cy="394.4881" rx="5.1544" ry="1.6627"/>
<ellipse style="stroke:#000000;stroke-width:3;stroke-miterlimit:10;" cx="336.4964" cy="371.2495" rx="16.3761" ry="14.3474"/>
<path style="fill:#FFFFFF;stroke:#000000;stroke-width:3;stroke-miterlimit:10;" d="M338.7325,421.5009
	c0,0-82.4629-0.077-89.7788,7.904c-7.0223,7.6606,2.4805,22.2599-5.3206,43.2303c-3.4274,9.2131-8.1866,15.8641-11.198,19.6176
	c6.3679,15.1726,12.0989,18.8715,16.4054,19.0657c9.357,0.4219,11.6518-15.7171,29.0444-23.7189
	c5.5431-2.5502,13.523-3.105,29.4828-4.2146c10.433-0.7253,41.8218-0.9261,31.3648-0.7735l0,0
	c-0.5444,2.8652-1.1653,7.1151-1.2144,12.3016c-0.0565,5.9664-0.0848,8.9496,1.3302,11.0847
	c3.8274,5.7752,16.5375,6.7815,24.8297,1.3302c7.625-5.0128,11.218-15.2909,8.8678-25.7165
	c10.6413-1.7736,21.2826-3.5471,31.924-5.3207c2.4175,2.5785,6.3664,6.3272,11.9715,9.7545
	c7.5325,4.606,13.9433,8.526,21.2826,6.6508c7.3977-1.8901,14.4467-9.3377,14.1884-16.4054
	c-0.2482-6.7925-7.0836-8.7942-15.962-20.8392c-4.5383-6.157-7.3641-11.8907-9.0741-15.8885
	c-0.4585-3.7807-1.7389-9.6437-5.6659-15.4789c-1.3074-1.9427-2.6928-3.5623-4.0119-4.8965"/>
<path style="stroke:#000000;stroke-width:3;stroke-miterlimit:10;" d="M321.6176,482.379c0,0,1.9065,8.7032,1.7589,10.0426
	c-0.1475,1.3394-0.3142,9.1139-4.2319,10.7431c-3.9178,1.6291-11.1218,1.9479-15.7339-0.3874s-12.3158-15.0523-12.3158-15.0523
	c-1.9089-4.1632-1.9089-4.1632-1.9089-4.1632"/>
<path style="fill:#FFFFFF;stroke:#000000;stroke-width:3;stroke-miterlimit:10;" d="M244.2506,436.5139
	c0,0-10.9263-21.0757-11.9239-33.0472s13.9667,13.9667,13.9667,13.9667l9.8065,9.0511"/>
<polyline style="fill:#FFFFFF;stroke:#000000;stroke-width:3;stroke-miterlimit:10;" points="429.2994,361.1041 396.9321,376.0851 
	432.8466,381.4058 "/>
<circle style="fill:none;stroke:#000000;stroke-width:3;stroke-miterlimit:10;" cx="376.5363" cy="409.7826" r="2.6603"/>
</svg>
